<svg width="64" height="31" viewBox="0 0 64 31" fill="none" xmlns="http://www.w3.org/2000/svg">
<g clip-path="url(#clip0_1501_238)">
<path d="M13.1912 9.49612C13.8069 9.28566 14.4638 9.17341 15.1452 9.17341C18.1284 9.17341 20.6189 11.3454 21.1881 14.233L25.4165 13.349C24.4477 8.4438 20.2166 4.75085 15.1452 4.75085C13.9821 4.75085 12.8682 4.94448 11.8228 5.30367L13.1912 9.49612Z" fill="#5B5C62"/>
<path d="M8.20198 23.5439L11.062 20.2298C9.7866 19.0709 8.98197 17.3787 8.98197 15.493C8.98197 13.61 9.7866 11.9179 11.062 10.7617L8.20198 7.44482C6.03442 9.41477 4.66602 12.2911 4.66602 15.493C4.66602 18.6977 6.03442 21.574 8.20198 23.5439" fill="#5B5C62"/>
<path d="M21.1881 16.7614C20.6161 19.6461 18.1284 21.8153 15.148 21.8153C14.4638 21.8153 13.8042 21.7031 13.1912 21.4898L11.8228 25.6879C12.8682 26.0442 13.9848 26.2379 15.148 26.2379C20.2138 26.2379 24.4422 22.5505 25.4165 17.6509L21.1881 16.7614Z" fill="#5B5C62"/>
<path d="M29.1139 20.3673C28.9743 20.1372 28.7882 19.7696 28.6733 19.4974C28.0028 17.9035 27.9727 16.2534 28.5365 14.6707C29.1577 12.9337 30.3455 11.6064 31.8808 10.9273C33.8103 10.077 35.9423 10.2426 37.7924 11.3678C38.9665 12.0582 39.7985 13.1245 40.4307 14.6342C40.51 14.8279 40.5812 15.0327 40.6523 15.2095L29.1139 20.3673ZM32.9674 13.4893C31.5962 14.0927 30.8901 15.4116 31.0379 16.955L36.84 14.3929C35.841 13.1919 34.5438 12.7934 32.9674 13.4893V13.4893ZM37.5625 19.0624C37.5597 19.0624 37.5597 19.0652 37.5597 19.0652L37.4393 18.981C37.0917 19.5563 36.5526 20.0249 35.8711 20.328C34.5739 20.9061 33.3724 20.7574 32.5076 19.98L32.4282 20.1035C32.4282 20.1035 32.4282 20.1007 32.4255 20.1007L30.9531 22.3597C31.3198 22.6207 31.7112 22.8396 32.1217 23.0163C33.7474 23.7095 35.4113 23.6758 37.0507 22.9462C38.2357 22.4186 39.1662 21.6161 39.8012 20.5974L37.5625 19.0624ZM44.6837 7.60474V20.1596L46.5885 20.951L45.5074 23.5383L43.4056 22.6403C42.9348 22.4298 42.6119 22.1099 42.3711 21.7479C42.1384 21.3803 41.966 20.8724 41.966 20.1933V7.60474H44.6837ZM49.6154 16.9634C49.6154 15.8942 50.0779 14.9345 50.8059 14.2835L48.8518 12.0497C47.5272 13.2508 46.6925 15.0047 46.6925 16.9578C46.6898 18.9137 47.5245 20.6704 48.8464 21.8714L50.7977 19.6377C50.0725 18.9838 49.6154 18.0297 49.6154 16.9634V16.9634ZM53.0857 20.5244C52.7025 20.5244 52.3303 20.4571 51.9855 20.3392L51.0522 23.1819C51.6899 23.4008 52.3714 23.5215 53.083 23.5215C56.1756 23.5243 58.7564 21.2737 59.3557 18.2851L56.4875 17.6846C56.1619 19.3094 54.7634 20.5272 53.0857 20.5244V20.5244ZM53.0939 10.4053C52.3851 10.4053 51.7036 10.5232 51.0659 10.7393L51.991 13.5847C52.3385 13.4669 52.708 13.4023 53.0912 13.4023C54.7716 13.4051 56.1728 14.6286 56.4903 16.2562L59.3585 15.6613C58.7701 12.6671 56.1892 10.4081 53.0939 10.4053V10.4053Z" fill="white"/>
</g>
<defs>
<clipPath id="clip0_1501_238">
<rect width="64" height="31" fill="white"/>
</clipPath>
</defs>
</svg>
